# xmcd
#
# Track frame offsets:
#	150
#	20180
#	36107
#	49487
#	64437
#	80407
#	92550
#	108395
#	124542
#	137697
#	151307
#	164895
#	185392
#	199440
#	213530
#	230232
#	245547
#	261045
#
# Disc length: 3739 seconds
#
# Revision: 0
# Processed by: cddbd v1.5.2PL0 Copyright (c) Steve Scherf et al.
# Submitted via: EasyCDDAExtractor 15.2.5.1
#
DISCID=120e9912
DTITLE=Various Artist - Kool Country
DYEAR=1900
DGENRE=Country
TTITLE0=John Michael Montgomery - I Swear
TTITLE1=Randy Travis - Forever And Ever, Amen
TTITLE2=Dwight Yoakam - Pocket Of A Clown
TTITLE3=Faith Hill - Take Me As I Am
TTITLE4=Travis Tritt - Ten Feet Tall And Bulletproof
TTITLE5=Hank Williams Jr - Born To Boogie
TTITLE6=Confederate Railroad - Elvis And Andy
TTITLE7=Neal Mccoy - The City Put The Country Back Into Me
TTITLE8=Archer and Park - Where There's Smoke
TTITLE9=Tracy Lawrence - As Any Fool Can See
TTITLE10=David Ball - Thinkin' Problem
TTITLE11=Michael Martin Murphey - Rhyme Of The Renegades
TTITLE12=Little Texas - Stop On A Dime
TTITLE13=Bryan White - Look At Me Now
TTITLE14=Confederate Railroad - Daddy Never Was The Cadillac Kind
TTITLE15=Neal Mccoy - For A Change
TTITLE16=Randy Travis - He Walked On Water
TTITLE17=Travis Tritt - Foolish Pride
EXTD=
EXTT0=
EXTT1=
EXTT2=
EXTT3=
EXTT4=
EXTT5=
EXTT6=
EXTT7=
EXTT8=
EXTT9=
EXTT10=
EXTT11=
EXTT12=
EXTT13=
EXTT14=
EXTT15=
EXTT16=
EXTT17=
PLAYORDER=
